HIERARCHY
ROOT Hips
{
	OFFSET 0.00000 0.00000 0.00000
	CHANNELS 6 Xposition Yposition Zposition Zrotation Yrotation Xrotation 
	JOINT LHipJoint
	{
		OFFSET 0 0 0
		CHANNELS 3 Zrotation Yrotation Xrotation
		JOINT LeftHip
		{
			OFFSET 1.44361 -1.63093 0.70831
			CHANNELS 3 Zrotation Yrotation Xrotation
			JOINT LeftKnee
			{
				OFFSET 2.20103 -6.04728 0.00000
				CHANNELS 3 Zrotation Yrotation Xrotation
				JOINT LeftAnkle
				{
					OFFSET 2.54154 -6.98283 0.00000
					CHANNELS 3 Zrotation Yrotation Xrotation
					JOINT LeftToe
					{
						OFFSET 0.05971 -0.16406 1.77582
						CHANNELS 3 Zrotation Yrotation Xrotation
						End Site
						{
							OFFSET 0.00000 -0.00000 0.90832
						}
					}
				}
			}
		}
	}
	JOINT RHipJoint
	{
		OFFSET 0 0 0
		CHANNELS 3 Zrotation Yrotation Xrotation
		JOINT RightHip
		{
			OFFSET -1.65838 -1.63093 0.70830
			CHANNELS 3 Zrotation Yrotation Xrotation
			JOINT RightKnee
			{
				OFFSET -2.26926 -6.23475 0.00000
				CHANNELS 3 Zrotation Yrotation Xrotation
				JOINT RightAnkle
				{
					OFFSET -2.34808 -6.45129 0.00000
					CHANNELS 3 Zrotation Yrotation Xrotation
					JOINT RightToe
					{
						OFFSET -0.18633 -0.51195 1.68539
						CHANNELS 3 Zrotation Yrotation Xrotation
						End Site
						{
							OFFSET -0.00000 -0.00000 0.88927
						}
					}
				}
			}
		}
	}
	JOINT lowerback
	{
		OFFSET 0 0 0
		CHANNELS 3 Zrotation Yrotation Xrotation
		JOINT Chest
		{
			OFFSET -0.10393 2.01691 0.06920
			CHANNELS 3 Zrotation Yrotation Xrotation
			JOINT Chest2
			{
				OFFSET 0.04092 2.01302 -0.05283
				CHANNELS 3 Zrotation Yrotation Xrotation
				JOINT lowerneck
				{
					OFFSET 0 0 0
					CHANNELS 3 Zrotation Yrotation Xrotation
					JOINT Neck
					{
						OFFSET -0.02870 1.58978 -0.03113
						CHANNELS 3 Zrotation Yrotation Xrotation
						JOINT Head
						{
							OFFSET 0.11532 1.54326 -0.29195
							CHANNELS 3 Zrotation Yrotation Xrotation
							End Site
							{
								OFFSET 0.04056 1.59999 -0.09535
							}
						}
					}
				}
				JOINT LeftCollar
				{
					OFFSET 0 0 0
					CHANNELS 3 Zrotation Yrotation Xrotation
					JOINT LeftShoulder
					{
						OFFSET 3.30641 1.15764 0.01104
CHANNELS 3 Zrotation Xrotation Yrotation
						JOINT LeftElbow
						{
OFFSET 0 -4.632080 0.000000
CHANNELS 3 Zrotation Xrotation Yrotation
							JOINT LeftWrist
							{
OFFSET 0 -3.419240 -0.000000
CHANNELS 3 Zrotation Xrotation Yrotation
								JOINT lhand
								{
									OFFSET 0 0 0
CHANNELS 3 Zrotation Xrotation Yrotation
									JOINT LFingers
									{
OFFSET 0 -0.625370 -0.000000
CHANNELS 3 Zrotation Xrotation Yrotation
										End Site
										{
OFFSET 0 -0.504190 -0.000000
										}
									}
								}
								JOINT LThumb
								{
OFFSET 0 0.000000 0.000000
CHANNELS 3 Zrotation Xrotation Yrotation
									End Site
									{
OFFSET 0 -0.511890 0.511890
									}
								}
							}
						}
					}
				}
				JOINT RightCollar
				{
					OFFSET 0 0 0
					CHANNELS 3 Zrotation Yrotation Xrotation
					JOINT RightShoulder
					{
						OFFSET -3.78081 1.02180 -0.16609
CHANNELS 3 Zrotation Xrotation Yrotation
						JOINT RightElbow
						{
OFFSET 0 -4.406400 -0.000000
CHANNELS 3 Zrotation Xrotation Yrotation
							JOINT RightWrist
							{
OFFSET 0 -3.446750 0.000000
CHANNELS 3 Zrotation Xrotation Yrotation
								JOINT rhand
								{
									OFFSET 0 0 0
CHANNELS 3 Zrotation Xrotation Yrotation
									JOINT RFingers
									{
OFFSET 0 -0.513670 -0.000000
CHANNELS 3 Zrotation Xrotation Yrotation
										End Site
										{
OFFSET 0 -0.414140 -0.000000
										}
									}
								}
								JOINT RThumb
								{
OFFSET 0 0.000000 0.000000
CHANNELS 3 Zrotation Xrotation Yrotation
									End Site
									{
OFFSET 0 -0.420460 0.420460
									}
								}
							}
						}
					}
				}
			}
		}
	}
}
MOTION
Frames: 6
Frame Time: 0.008333333333333333
7.792841 9.576757 8.871462 156.097114 -56.647283 -160.398760 0.000000 0.000000 0.000000 -18.159539 -20.183765 -53.311660 8.833158 16.699077 55.511226 0.000000 0.000000 0.000000 0.000000 0.000000 0.000000 0.000000 0.000000 0.000000 -27.290054 -1.281405 -68.024739 -12.707289 -18.673825 68.213892 -35.645608 -7.818798 141.801815 -4.920151 13.293078 -40.476147 -5.526871 2.963519 24.140588 3.677098 2.489196 2.986425 6.541234 1.343282 -10.586080 -0.672490 1.779111 -10.616012 -6.565568 0.853949 -14.166830 -1.996650 0.150725 -2.735788 0.000000 0.000000 0.000000 60.940910 -37.839772 23.088948 144.667435 -45.048122 104.951723 56.967651 -4.749109 27.269301 0.000000 0.000000 0.000000 -7.125000 0.000000 0.000000 14.909278 -12.151122 18.270569 0.000000 0.000000 0.000000 -8.109714 -20.833768 -5.736405 -51.193782 -53.465178 -27.130604 8.344742 -54.187731 19.241436 0.000000 0.000000 0.000000 7.125000 0.000000 0.000000 33.902780 46.175081 -1.111605
7.804123 9.552071 8.864786 156.133341 -56.467648 -160.650279 0.000000 0.000000 0.000000 -18.133818 -19.809695 -53.272379 8.799674 16.677030 55.394679 0.000000 0.000000 0.000000 0.000000 0.000000 0.000000 0.000000 0.000000 0.000000 -27.361163 -1.032215 -68.127417 -12.649067 -18.651675 68.031877 -35.644625 -7.828993 141.798244 -4.974854 13.355233 -40.713641 -5.731812 3.129956 24.370164 3.737493 2.636588 3.083876 6.680501 1.416047 -10.633641 -0.612871 1.849133 -10.448436 -6.718705 0.892246 -14.449091 -2.064550 0.171374 -2.860564 0.000000 0.000000 0.000000 61.167329 -37.969517 23.356045 144.583906 -45.106965 104.892570 57.045953 -4.829326 27.202902 0.000000 0.000000 0.000000 -7.125000 0.000000 0.000000 14.971433 -12.119967 18.345507 0.000000 0.000000 0.000000 -8.160743 -20.948504 -5.797215 -51.526346 -53.592335 -27.398011 8.285226 -54.255993 19.370508 0.000000 0.000000 0.000000 7.125000 0.000000 0.000000 33.923740 46.292042 -1.222615
7.812585 9.527914 8.866278 156.059972 -56.402840 -160.712576 0.000000 0.000000 0.000000 -18.137303 -19.685051 -53.336730 8.749354 16.643553 55.219014 0.000000 0.000000 0.000000 0.000000 0.000000 0.000000 0.000000 0.000000 0.000000 -27.489772 -1.011765 -68.252866 -12.593842 -18.630465 67.859059 -35.658509 -8.018890 141.881204 -4.946111 13.322278 -40.588264 -5.775563 3.209657 24.538742 3.765040 2.716108 3.143864 6.710348 1.451702 -10.671330 -0.666520 1.880840 -10.343533 -6.775468 0.903923 -14.668590 -2.078886 0.181417 -2.954813 0.000000 0.000000 0.000000 61.358195 -38.107988 23.582154 144.520621 -45.151440 104.847725 57.011780 -4.784198 27.163975 0.000000 0.000000 0.000000 -7.125000 0.000000 0.000000 14.965686 -12.048793 18.323954 0.000000 0.000000 0.000000 -8.217677 -21.060155 -5.893694 -51.818539 -53.702744 -27.633304 8.087320 -54.284002 19.475780 0.000000 0.000000 0.000000 7.125000 0.000000 0.000000 33.816005 46.407447 -1.325192
7.818898 9.504159 8.873989 155.903160 -56.425456 -160.630806 0.000000 0.000000 0.000000 -18.163024 -19.750312 -53.479982 8.686215 16.601375 54.998339 0.000000 0.000000 0.000000 0.000000 0.000000 0.000000 0.000000 0.000000 0.000000 -27.662161 -1.165472 -68.395652 -12.540899 -18.609970 67.693243 -35.683713 -8.345607 142.030045 -4.853836 13.216909 -40.186610 -5.696588 3.223320 24.660879 3.767576 2.743951 3.175330 6.656887 1.459102 -10.701502 -0.806409 1.883376 -10.286346 -6.758856 0.895332 -14.840307 -2.052440 0.183383 -3.025818 0.000000 0.000000 0.000000 61.521993 -38.253103 23.777055 144.472750 -45.184976 104.813775 56.891972 -4.643637 27.145965 0.000000 0.000000 0.000000 -7.125000 0.000000 0.000000 14.908240 -11.947150 18.228936 0.000000 0.000000 0.000000 -8.279108 -21.169458 -6.017332 -52.079995 -53.800402 -27.844145 7.784048 -54.281362 19.562932 0.000000 0.000000 0.000000 7.125000 0.000000 0.000000 33.610287 46.521665 -1.421349
7.822647 9.477773 8.885482 155.661169 -56.557162 -160.257319 0.000000 0.000000 0.000000 -18.123199 -20.060260 -53.886405 8.598443 16.541864 54.690182 0.000000 0.000000 0.000000 0.000000 0.000000 0.000000 0.000000 0.000000 0.000000 -27.865794 -1.578830 -68.720507 -12.475918 -18.584510 67.489441 -35.717402 -8.645947 142.214274 -4.774749 13.125221 -39.839615 -5.540358 3.146409 24.537769 3.754523 2.693125 3.151314 6.567644 1.429175 -10.647316 -1.037199 1.875256 -10.251555 -6.666666 0.888056 -14.997092 -1.984160 0.188770 -3.088469 0.000000 0.000000 0.000000 61.669380 -38.364837 23.937950 144.429088 -45.215519 104.782818 56.813833 -4.462327 27.065533 0.000000 0.000000 0.000000 -7.125000 0.000000 0.000000 14.892299 -11.794860 18.177724 0.000000 0.000000 0.000000 -8.328304 -21.271195 -6.139720 -52.340497 -53.896481 -28.054526 7.557076 -54.261588 19.638737 0.000000 0.000000 0.000000 7.125000 0.000000 0.000000 33.461696 46.616283 -1.500996
7.824924 9.449878 8.899145 155.370317 -56.751443 -159.716501 0.000000 0.000000 0.000000 -18.045777 -20.510562 -54.443784 8.496542 16.472412 54.331845 0.000000 0.000000 0.000000 0.000000 0.000000 0.000000 0.000000 0.000000 0.000000 -28.087348 -2.141125 -69.149798 -12.404034 -18.556201 67.263850 -35.755958 -8.931157 142.418802 -4.703226 13.041381 -39.523974 -5.339816 3.017544 24.273984 3.732528 2.597175 3.095472 6.457876 1.377836 -10.544741 -1.320133 1.861024 -10.229612 -6.531125 0.881535 -15.145312 -1.891885 0.196119 -3.146329 0.000000 0.000000 0.000000 61.807353 -38.457423 24.079339 144.387841 -45.244345 104.753578 56.759596 -4.257645 26.949296 0.000000 0.000000 0.000000 -7.125000 0.000000 0.000000 14.900165 -11.613518 18.151641 0.000000 0.000000 0.000000 -8.370482 -21.368594 -6.261391 -52.600452 -53.991655 -28.264643 7.373871 -54.231985 19.708034 0.000000 0.000000 0.000000 7.125000 0.000000 0.000000 33.345873 46.699657 -1.571173
